<?xml version="1.0" standalone="no"?>
<!DOCTYPE svg PUBLIC "-//W3C//DTD SVG 20010904//EN"
 "http://www.w3.org/TR/2001/REC-SVG-20010904/DTD/svg10.dtd">
<svg version="1.0" xmlns="http://www.w3.org/2000/svg"
 width="144.000000pt" height="144.000000pt" viewBox="0 0 144.000000 144.000000"
 preserveAspectRatio="xMidYMid meet">

<g transform="translate(0.000000,144.000000) scale(0.100000,-0.100000)"
fill="#000000" stroke="none">
<path d="M190 1431 c-69 -22 -130 -73 -166 -141 -18 -33 -19 -67 -19 -570 0
-529 0 -535 22 -575 25 -47 74 -95 123 -121 33 -18 67 -19 570 -19 529 0 535
0 575 22 47 25 95 74 121 123 18 33 19 67 19 570 0 503 -1 537 -19 570 -26 49
-74 98 -121 123 -39 22 -48 22 -560 24 -286 1 -531 -2 -545 -6z m970 -69 c0
-4 -5 -13 -12 -20 -17 -17 0 -28 22 -14 36 22 29 -5 -10 -43 l-40 -39 -25 24
-25 24 37 38 c36 37 53 47 53 30z m-320 -22 c27 -7 91 -66 267 -242 264 -265
250 -242 241 -422 -14 -250 -178 -466 -421 -555 -64 -23 -86 -26 -207 -26
-115 1 -144 4 -200 24 -185 65 -334 213 -398 394 -33 95 -41 251 -18 351 53
226 240 416 462 470 69 17 224 20 274 6z m390 -29 c0 -5 -7 -14 -15 -21 -8 -7
-15 -17 -15 -23 0 -6 11 0 24 12 17 16 26 19 31 11 7 -12 -100 -130 -117 -130
-16 0 -7 27 17 50 14 13 23 26 20 28 -3 3 -19 -7 -35 -23 -53 -51 -33 -4 22
52 51 51 68 63 68 44z m85 -91 c29 -31 16 -43 -15 -15 -15 13 -19 14 -29 1 -9
-11 -6 -18 15 -35 15 -12 25 -24 21 -27 -7 -8 -38 10 -61 35 -19 21 -19 22 4
46 13 14 26 25 30 25 3 0 19 -13 35 -30z m20 -71 c18 20 37 33 41 29 4 -4 2
-14 -5 -21 -6 -8 -8 -23 -4 -32 5 -15 3 -17 -12 -11 -13 4 -27 -2 -47 -21
l-28 -27 -28 27 c-41 40 -52 33 -12 -8 18 -19 30 -38 26 -42 -3 -4 -26 12 -49
35 -39 39 -41 43 -24 59 16 16 18 15 45 -10 40 -39 52 -33 14 6 -18 18 -29 37
-25 40 4 4 22 -8 41 -26 l34 -34 33 36z"/>
<path d="M1105 1299 c-10 -15 1 -23 20 -15 9 3 13 10 10 16 -8 13 -22 13 -30
-1z"/>
<path d="M300 904 c-162 -70 -160 -301 2 -369 54 -22 107 -19 165 10 60 30 67
43 48 89 -19 45 -19 127 0 172 19 46 12 59 -48 89 -58 29 -115 32 -167 9z
m114 -96 c36 -51 5 -118 -54 -118 -61 0 -93 77 -50 120 28 28 84 27 104 -2z
m-74 -143 c0 -8 9 -15 20 -15 11 0 20 7 20 15 0 8 9 15 20 15 11 0 20 -7 20
-15 0 -8 7 -15 15 -15 8 0 15 -7 15 -15 0 -13 -14 -15 -87 -13 -58 2 -88 7
-91 16 -2 6 3 12 11 12 8 0 17 7 21 15 3 8 12 15 21 15 8 0 15 -7 15 -15z"/>
<path d="M330 781 c-20 -38 13 -71 51 -51 21 12 25 40 7 58 -18 18 -46 14 -58
-7z"/>
<path d="M974 895 c-147 -73 -147 -276 0 -350 57 -29 111 -32 164 -10 163 69
163 301 0 370 -53 22 -107 19 -164 -10z m141 -85 c41 -45 10 -120 -48 -120
-39 0 -77 35 -77 70 0 61 85 95 125 50z m-75 -145 c0 -8 9 -15 20 -15 11 0 23
7 26 15 4 8 12 15 20 15 8 0 14 -7 14 -15 0 -8 7 -15 15 -15 8 0 15 -7 15 -15
0 -13 -14 -15 -87 -13 -58 2 -88 7 -91 16 -2 6 4 12 12 12 9 0 19 7 22 15 4 8
12 15 20 15 8 0 14 -7 14 -15z"/>
<path d="M1043 793 c-22 -8 -16 -61 7 -68 39 -12 66 35 38 63 -13 13 -24 14
-45 5z"/>
</g>
</svg>
